<svg width="520" height="650" viewBox="0 0 520 650" fill="none" xmlns="http://www.w3.org/2000/svg">
  <rect width="520" height="650" rx="28" fill="#050505"/>
  <path d="M0 0H520V650H0V0Z" fill="url(#bg)"/>
  <circle cx="260" cy="184" r="92" fill="#CBD5E1"/>
  <path d="M128 500C143 385 190 316 260 316C330 316 377 385 392 500H128Z" fill="#FFC300"/>
  <path d="M186 176C198 115 240 89 295 104C346 118 371 166 354 218C328 196 295 188 255 194C225 199 202 193 186 176Z" fill="#0F172A"/>
  <rect x="92" y="514" width="336" height="54" rx="14" fill="white" fill-opacity=".08"/>
  <text x="260" y="548" text-anchor="middle" fill="#FFC300" font-family="Arial, Helvetica, sans-serif" font-size="24" font-weight="700">Your Photo Here</text>
  <defs>
    <linearGradient id="bg" x1="35" y1="29" x2="475" y2="620" gradientUnits="userSpaceOnUse">
      <stop stop-color="#050505"/>
      <stop offset=".52" stop-color="#1A1A1A"/>
      <stop offset="1" stop-color="#050505"/>
    </linearGradient>
  </defs>
</svg>
